<svg xmlns="http://www.w3.org/2000/svg" viewBox="0 0 1100 720" font-family="-apple-system,Segoe UI,sans-serif">
  <!-- Page background -->
  <rect width="1100" height="720" fill="#f9fafb"/>

  <!-- Top nav -->
  <rect x="0" y="0" width="1100" height="56" fill="#1e3a8a"/>
  <text x="24" y="35" fill="#fff" font-size="16" font-weight="700">DataON 관리자</text>
  <text x="200" y="35" fill="#ffffff" font-size="14" font-weight="600">대시보드</text>
  <text x="290" y="35" fill="#cbd5e1" font-size="14">에이전트</text>
  <text x="370" y="35" fill="#cbd5e1" font-size="14">공통도구</text>
  <text x="460" y="35" fill="#cbd5e1" font-size="14">Workspace</text>
  <text x="560" y="35" fill="#cbd5e1" font-size="14">로그</text>
  <text x="1020" y="35" fill="#cbd5e1" font-size="13">admin ▾</text>

  <!-- Restart-required banner -->
  <rect x="24" y="76" width="1052" height="44" rx="6" fill="#fef3c7" stroke="#f59e0b" stroke-width="1.5"/>
  <text x="44" y="103" fill="#92400e" font-size="14">⚠  설정이 변경되었습니다 (developer/config.json). 적용하려면 우측 [에이전트 재시작]을 누르세요.</text>
  <rect x="900" y="84" width="160" height="28" rx="4" fill="#f59e0b"/>
  <text x="980" y="102" fill="#fff" font-size="13" font-weight="600" text-anchor="middle">에이전트 재시작</text>

  <!-- Service status — 3 cards -->
  <text x="24" y="150" fill="#111827" font-size="15" font-weight="700">서비스 상태</text>

  <!-- Card 1: LangGraph -->
  <rect x="24" y="164" width="345" height="120" rx="8" fill="#fff" stroke="#e5e7eb"/>
  <circle cx="46" cy="190" r="6" fill="#10b981"/>
  <text x="62" y="194" fill="#111827" font-size="14" font-weight="600">LangGraph 서버</text>
  <text x="46" y="218" fill="#6b7280" font-size="12">포트 2024 · 그래프 2개 로드</text>
  <text x="46" y="240" fill="#111827" font-size="22" font-weight="700">3</text>
  <text x="72" y="240" fill="#6b7280" font-size="12">활성 스레드</text>
  <text x="46" y="266" fill="#10b981" font-size="12">▲ uptime 2d 3h 15m</text>

  <!-- Card 2: Docker -->
  <rect x="377" y="164" width="345" height="120" rx="8" fill="#fff" stroke="#e5e7eb"/>
  <circle cx="399" cy="190" r="6" fill="#10b981"/>
  <text x="415" y="194" fill="#111827" font-size="14" font-weight="600">Docker 컨테이너</text>
  <text x="399" y="218" fill="#6b7280" font-size="12">deepagents-sandbox</text>
  <!-- CPU bar -->
  <text x="399" y="240" fill="#6b7280" font-size="11">CPU</text>
  <rect x="430" y="232" width="180" height="8" rx="4" fill="#e5e7eb"/>
  <rect x="430" y="232" width="22" height="8" rx="4" fill="#2563eb"/>
  <text x="620" y="240" fill="#111827" font-size="11" font-weight="600">12%</text>
  <!-- RAM bar -->
  <text x="399" y="262" fill="#6b7280" font-size="11">RAM</text>
  <rect x="430" y="254" width="180" height="8" rx="4" fill="#e5e7eb"/>
  <rect x="430" y="254" width="45" height="8" rx="4" fill="#2563eb"/>
  <text x="620" y="262" fill="#111827" font-size="11" font-weight="600">128 / 512 MB</text>

  <!-- Card 3: LLM endpoint -->
  <rect x="730" y="164" width="345" height="120" rx="8" fill="#fff" stroke="#e5e7eb"/>
  <circle cx="752" cy="190" r="6" fill="#10b981"/>
  <text x="768" y="194" fill="#111827" font-size="14" font-weight="600">KISTI LLM 엔드포인트</text>
  <text x="752" y="218" fill="#6b7280" font-size="12">aida.kisti.re.kr:10430</text>
  <text x="752" y="244" fill="#111827" font-size="22" font-weight="700">45</text>
  <text x="785" y="244" fill="#6b7280" font-size="12">ms 응답</text>
  <text x="752" y="266" fill="#6b7280" font-size="12">모델: kistillm</text>

  <!-- Profile summary -->
  <text x="24" y="316" fill="#111827" font-size="15" font-weight="700">프로파일 현황</text>
  <rect x="24" y="330" width="525" height="200" rx="8" fill="#fff" stroke="#e5e7eb"/>
  <!-- Headers -->
  <text x="44" y="356" fill="#6b7280" font-size="11" font-weight="600">이름</text>
  <text x="200" y="356" fill="#6b7280" font-size="11" font-weight="600">모델</text>
  <text x="340" y="356" fill="#6b7280" font-size="11" font-weight="600">스킬</text>
  <text x="400" y="356" fill="#6b7280" font-size="11" font-weight="600">서브에이전트</text>
  <text x="500" y="356" fill="#6b7280" font-size="11" font-weight="600">상태</text>
  <line x1="36" y1="364" x2="538" y2="364" stroke="#e5e7eb"/>

  <!-- beginner row -->
  <text x="44" y="388" fill="#111827" font-size="13" font-weight="600">beginner</text>
  <text x="200" y="388" fill="#6b7280" font-size="12">kistillm</text>
  <text x="340" y="388" fill="#111827" font-size="13">2</text>
  <text x="400" y="388" fill="#111827" font-size="13">3</text>
  <circle cx="510" cy="384" r="5" fill="#10b981"/>
  <text x="520" y="388" fill="#10b981" font-size="11" font-weight="600">정상</text>
  <line x1="36" y1="402" x2="538" y2="402" stroke="#f3f4f6"/>

  <!-- developer row -->
  <text x="44" y="426" fill="#111827" font-size="13" font-weight="600">developer</text>
  <text x="200" y="426" fill="#6b7280" font-size="12">kistillm</text>
  <text x="340" y="426" fill="#111827" font-size="13">4</text>
  <text x="400" y="426" fill="#111827" font-size="13">3</text>
  <circle cx="510" cy="422" r="5" fill="#f59e0b"/>
  <text x="520" y="426" fill="#f59e0b" font-size="11" font-weight="600">재시작 필요</text>
  <line x1="36" y1="440" x2="538" y2="440" stroke="#f3f4f6"/>

  <!-- shared / data_pipeline labels -->
  <text x="44" y="466" fill="#6b7280" font-size="11">공유 자원</text>
  <text x="44" y="488" fill="#111827" font-size="13">shared (스킬 2)</text>
  <text x="200" y="488" fill="#6b7280" font-size="12">전 프로파일 노출</text>
  <text x="44" y="510" fill="#111827" font-size="13">data_pipeline (스킬 12)</text>
  <text x="200" y="510" fill="#6b7280" font-size="12">서브에이전트 선택 노출</text>

  <!-- Recent runs panel -->
  <text x="557" y="316" fill="#111827" font-size="15" font-weight="700">최근 실행</text>
  <rect x="557" y="330" width="518" height="200" rx="8" fill="#fff" stroke="#e5e7eb"/>

  <!-- Run 1 -->
  <text x="577" y="358" fill="#6b7280" font-size="11">2026-05-13 10:32 · sandbox-developer</text>
  <text x="577" y="378" fill="#111827" font-size="13" font-weight="600">"DataON 데이터 등록해줘"</text>
  <text x="577" y="396" fill="#6b7280" font-size="11">도구 4회 · write_file, execute · 4분 7초</text>
  <rect x="990" y="365" width="60" height="20" rx="3" fill="#d1fae5"/>
  <text x="1020" y="379" fill="#065f46" font-size="11" font-weight="600" text-anchor="middle">완료</text>
  <line x1="577" y1="408" x2="1055" y2="408" stroke="#f3f4f6"/>

  <!-- Run 2 -->
  <text x="577" y="430" fill="#6b7280" font-size="11">2026-05-13 09:15 · sandbox-beginner</text>
  <text x="577" y="450" fill="#111827" font-size="13" font-weight="600">"올해 AI 논문 검색해줘"</text>
  <text x="577" y="468" fill="#6b7280" font-size="11">도구 1회 · search_scienceon_papers · 1분 30초</text>
  <rect x="990" y="437" width="60" height="20" rx="3" fill="#d1fae5"/>
  <text x="1020" y="451" fill="#065f46" font-size="11" font-weight="600" text-anchor="middle">완료</text>
  <line x1="577" y1="480" x2="1055" y2="480" stroke="#f3f4f6"/>

  <!-- Run 3 -->
  <text x="577" y="502" fill="#6b7280" font-size="11">2026-05-13 08:47 · sandbox-developer</text>
  <text x="577" y="522" fill="#111827" font-size="13" font-weight="600">"파이프라인 실행 오류 분석"</text>
  <rect x="990" y="509" width="60" height="20" rx="3" fill="#fee2e2"/>
  <text x="1020" y="523" fill="#991b1b" font-size="11" font-weight="600" text-anchor="middle">오류</text>

  <!-- Quick actions -->
  <text x="24" y="562" fill="#111827" font-size="15" font-weight="700">빠른 작업</text>
  <rect x="24" y="576" width="200" height="44" rx="6" fill="#2563eb"/>
  <text x="124" y="603" fill="#fff" font-size="13" font-weight="600" text-anchor="middle">+ 새 프로파일 만들기</text>

  <rect x="234" y="576" width="170" height="44" rx="6" fill="#fff" stroke="#2563eb"/>
  <text x="319" y="603" fill="#2563eb" font-size="13" font-weight="600" text-anchor="middle">프로파일 동기화</text>

  <rect x="414" y="576" width="170" height="44" rx="6" fill="#fff" stroke="#d1d5db"/>
  <text x="499" y="603" fill="#111827" font-size="13" font-weight="600" text-anchor="middle">스모크 테스트</text>

  <rect x="594" y="576" width="170" height="44" rx="6" fill="#fff" stroke="#d1d5db"/>
  <text x="679" y="603" fill="#111827" font-size="13" font-weight="600" text-anchor="middle">로그 보기</text>

  <!-- Footer -->
  <text x="24" y="700" fill="#9ca3af" font-size="11">DataON Admin · v1.0.0 · API :8080 · LangGraph :2024 · 마지막 새로고침 10:32:55</text>
</svg>
