<svg xmlns="http://www.w3.org/2000/svg" viewBox="0 0 1100 820" font-family="-apple-system,Segoe UI,sans-serif">
  <rect width="1100" height="820" fill="#f9fafb"/>

  <!-- Top nav -->
  <rect x="0" y="0" width="1100" height="56" fill="#1e3a8a"/>
  <text x="24" y="35" fill="#fff" font-size="16" font-weight="700">DataON 관리자</text>
  <text x="200" y="35" fill="#cbd5e1" font-size="14">대시보드</text>
  <text x="290" y="35" fill="#ffffff" font-size="14" font-weight="600">에이전트</text>
  <text x="370" y="35" fill="#cbd5e1" font-size="14">공통도구</text>
  <text x="460" y="35" fill="#cbd5e1" font-size="14">Workspace</text>
  <text x="560" y="35" fill="#cbd5e1" font-size="14">로그</text>
  <text x="1020" y="35" fill="#cbd5e1" font-size="13">admin ▾</text>

  <!-- Breadcrumb + title -->
  <text x="24" y="86" fill="#6b7280" font-size="12">에이전트 / 프로파일 / </text>
  <text x="160" y="86" fill="#111827" font-size="12" font-weight="600">developer</text>

  <text x="24" y="118" fill="#111827" font-size="22" font-weight="700">developer</text>
  <rect x="138" y="100" width="98" height="22" rx="11" fill="#fde68a"/>
  <text x="187" y="115" fill="#92400e" font-size="11" font-weight="600" text-anchor="middle">⚠ 재시작 필요</text>
  <text x="24" y="140" fill="#6b7280" font-size="13">개발자용 에이전트 · kistillm · MCP 도구 11개 · 서브에이전트 3개</text>

  <!-- Right action buttons -->
  <rect x="836" y="100" width="100" height="36" rx="6" fill="#fff" stroke="#d1d5db"/>
  <text x="886" y="123" fill="#374151" font-size="13" text-anchor="middle">스모크 테스트</text>
  <rect x="944" y="100" width="80" height="36" rx="6" fill="#fff" stroke="#d1d5db"/>
  <text x="984" y="123" fill="#374151" font-size="13" text-anchor="middle">다운로드</text>
  <rect x="1032" y="100" width="44" height="36" rx="6" fill="#fff" stroke="#d1d5db"/>
  <text x="1054" y="125" fill="#374151" font-size="16" text-anchor="middle">⋯</text>

  <!-- Tab bar -->
  <rect x="24" y="160" width="1052" height="44" rx="6" fill="#fff" stroke="#e5e7eb"/>
  <rect x="24" y="160" width="170" height="44" rx="6" fill="#eff6ff"/>
  <line x1="24" y1="202" x2="194" y2="202" stroke="#2563eb" stroke-width="3"/>
  <text x="109" y="187" fill="#1e3a8a" font-size="13" font-weight="700" text-anchor="middle">시스템 프롬프트</text>

  <text x="265" y="187" fill="#6b7280" font-size="13" text-anchor="middle">LLM 설정</text>
  <rect x="305" y="174" width="36" height="18" rx="9" fill="#fde68a"/>
  <text x="323" y="187" fill="#92400e" font-size="10" font-weight="700" text-anchor="middle">변경</text>

  <text x="396" y="187" fill="#6b7280" font-size="13" text-anchor="middle">MCP 도구 (11)</text>
  <text x="540" y="187" fill="#6b7280" font-size="13" text-anchor="middle">스킬 (4)</text>
  <text x="680" y="187" fill="#6b7280" font-size="13" text-anchor="middle">서브에이전트 (3)</text>
  <text x="830" y="187" fill="#6b7280" font-size="13" text-anchor="middle">고급 설정</text>

  <!-- Editor + Version panel -->

  <!-- Editor card -->
  <rect x="24" y="222" width="730" height="500" rx="8" fill="#fff" stroke="#e5e7eb"/>

  <!-- Editor toolbar -->
  <rect x="24" y="222" width="730" height="44" fill="#f9fafb" stroke="#e5e7eb"/>
  <text x="44" y="248" fill="#111827" font-size="13" font-weight="600">AGENTS.md</text>
  <text x="160" y="248" fill="#6b7280" font-size="12">host/developer/AGENTS.md</text>

  <rect x="570" y="232" width="64" height="24" rx="4" fill="#fff" stroke="#d1d5db"/>
  <text x="602" y="248" fill="#374151" font-size="11" text-anchor="middle">미리보기</text>
  <rect x="640" y="232" width="50" height="24" rx="4" fill="#fff" stroke="#d1d5db"/>
  <text x="665" y="248" fill="#374151" font-size="11" text-anchor="middle">diff</text>
  <rect x="696" y="232" width="48" height="24" rx="4" fill="#fff" stroke="#d1d5db"/>
  <text x="720" y="248" fill="#374151" font-size="11" text-anchor="middle">검증</text>

  <!-- Editor gutter -->
  <rect x="24" y="266" width="44" height="404" fill="#f3f4f6"/>
  <text x="58" y="290" fill="#9ca3af" font-size="11" text-anchor="end">1</text>
  <text x="58" y="312" fill="#9ca3af" font-size="11" text-anchor="end">2</text>
  <text x="58" y="334" fill="#9ca3af" font-size="11" text-anchor="end">3</text>
  <text x="58" y="356" fill="#9ca3af" font-size="11" text-anchor="end">4</text>
  <text x="58" y="378" fill="#9ca3af" font-size="11" text-anchor="end">5</text>
  <text x="58" y="400" fill="#9ca3af" font-size="11" text-anchor="end">6</text>
  <text x="58" y="422" fill="#9ca3af" font-size="11" text-anchor="end">7</text>
  <text x="58" y="444" fill="#9ca3af" font-size="11" text-anchor="end">8</text>
  <text x="58" y="466" fill="#9ca3af" font-size="11" text-anchor="end">9</text>
  <text x="58" y="488" fill="#9ca3af" font-size="11" text-anchor="end">10</text>
  <text x="58" y="510" fill="#9ca3af" font-size="11" text-anchor="end">11</text>
  <text x="58" y="532" fill="#9ca3af" font-size="11" text-anchor="end">12</text>
  <text x="58" y="554" fill="#9ca3af" font-size="11" text-anchor="end">13</text>
  <text x="58" y="576" fill="#9ca3af" font-size="11" text-anchor="end">14</text>
  <text x="58" y="598" fill="#9ca3af" font-size="11" text-anchor="end">15</text>

  <!-- Editor content (Markdown with syntax highlighting) -->
  <text x="78" y="290" fill="#6b7280" font-size="12" font-family="ui-monospace,Menlo,monospace">---</text>
  <text x="78" y="312" fill="#0891b2" font-size="12" font-family="ui-monospace,Menlo,monospace">name:</text>
  <text x="130" y="312" fill="#16a34a" font-size="12" font-family="ui-monospace,Menlo,monospace">Sandbox Assistant</text>
  <text x="78" y="334" fill="#0891b2" font-size="12" font-family="ui-monospace,Menlo,monospace">description:</text>
  <text x="180" y="334" fill="#16a34a" font-size="12" font-family="ui-monospace,Menlo,monospace">개발자용 에이전트</text>
  <text x="78" y="356" fill="#6b7280" font-size="12" font-family="ui-monospace,Menlo,monospace">---</text>

  <text x="78" y="400" fill="#6d28d9" font-size="13" font-weight="700" font-family="ui-monospace,Menlo,monospace"># Sandbox Assistant</text>

  <text x="78" y="444" fill="#111827" font-size="12" font-family="ui-monospace,Menlo,monospace">You are an AI agent operating inside a Docker</text>
  <text x="78" y="466" fill="#111827" font-size="12" font-family="ui-monospace,Menlo,monospace">sandbox at /tmp/workspace. You have access to</text>
  <text x="78" y="488" fill="#111827" font-size="12" font-family="ui-monospace,Menlo,monospace">execute, write_file, edit_file, and MCP tools.</text>

  <text x="78" y="532" fill="#6d28d9" font-size="12" font-weight="700" font-family="ui-monospace,Menlo,monospace">## Guidelines</text>

  <text x="78" y="576" fill="#111827" font-size="12" font-family="ui-monospace,Menlo,monospace">- Always read host/shared/skills/workspace-</text>
  <text x="78" y="598" fill="#111827" font-size="12" font-family="ui-monospace,Menlo,monospace">  awareness/SKILL.md before working with files.</text>

  <!-- Cursor caret -->
  <rect x="78" y="618" width="2" height="14" fill="#2563eb"/>

  <!-- Editor status bar -->
  <rect x="24" y="680" width="730" height="42" fill="#f9fafb" stroke="#e5e7eb"/>
  <circle cx="44" cy="701" r="5" fill="#f59e0b"/>
  <text x="56" y="705" fill="#92400e" font-size="12" font-weight="600">미저장 변경 있음</text>
  <text x="190" y="705" fill="#6b7280" font-size="11">행 13, 열 12 · UTF-8 · LF · 1.4 KB</text>

  <rect x="510" y="688" width="100" height="26" rx="4" fill="#fff" stroke="#d1d5db"/>
  <text x="560" y="706" fill="#374151" font-size="12" font-weight="600" text-anchor="middle">변경 미리보기</text>
  <rect x="620" y="688" width="120" height="26" rx="4" fill="#2563eb"/>
  <text x="680" y="706" fill="#fff" font-size="12" font-weight="700" text-anchor="middle">저장 (자동 커밋)</text>

  <!-- Version history panel -->
  <rect x="766" y="222" width="310" height="500" rx="8" fill="#fff" stroke="#e5e7eb"/>
  <text x="784" y="248" fill="#111827" font-size="14" font-weight="700">버전 이력</text>
  <text x="784" y="266" fill="#6b7280" font-size="11">host/developer/AGENTS.md · 8개 커밋</text>

  <!-- Filter -->
  <rect x="784" y="280" width="274" height="28" rx="4" fill="#f9fafb" stroke="#e5e7eb"/>
  <text x="794" y="298" fill="#9ca3af" font-size="11">🔍 작성자·메시지·날짜 필터</text>

  <!-- Version entry 1 (current) -->
  <rect x="784" y="318" width="274" height="80" rx="6" fill="#eff6ff" stroke="#2563eb"/>
  <circle cx="800" cy="338" r="5" fill="#2563eb"/>
  <text x="812" y="342" fill="#1e3a8a" font-size="12" font-weight="700">abc1234</text>
  <text x="900" y="342" fill="#6b7280" font-size="11">현재 · 어제 14:30</text>
  <text x="800" y="362" fill="#111827" font-size="11">admin: update profiles/developer/</text>
  <text x="800" y="378" fill="#111827" font-size="11">AGENTS.md</text>
  <text x="800" y="392" fill="#6b7280" font-size="10">tsyi · +4 / -2 라인</text>

  <!-- Version entry 2 -->
  <rect x="784" y="406" width="274" height="76" rx="6" fill="#fff" stroke="#e5e7eb"/>
  <circle cx="800" cy="426" r="5" fill="#9ca3af"/>
  <text x="812" y="430" fill="#374151" font-size="12" font-weight="600">def5678</text>
  <text x="900" y="430" fill="#6b7280" font-size="11">3일 전 · 09:15</text>
  <text x="800" y="450" fill="#111827" font-size="11">admin: restore AGENTS.md</text>
  <text x="800" y="466" fill="#111827" font-size="11">to 1a2b3c4d</text>
  <text x="800" y="478" fill="#6b7280" font-size="10">tsyi · +12 / -8 라인</text>

  <!-- Version entry 3 -->
  <rect x="784" y="490" width="274" height="60" rx="6" fill="#fff" stroke="#e5e7eb"/>
  <circle cx="800" cy="510" r="5" fill="#9ca3af"/>
  <text x="812" y="514" fill="#374151" font-size="12" font-weight="600">1a2b3c4</text>
  <text x="900" y="514" fill="#6b7280" font-size="11">2주 전 · 11:42</text>
  <text x="800" y="534" fill="#111827" font-size="11">admin: add profile developer</text>

  <!-- Version entry 4 -->
  <rect x="784" y="558" width="274" height="60" rx="6" fill="#fff" stroke="#e5e7eb"/>
  <circle cx="800" cy="578" r="5" fill="#9ca3af"/>
  <text x="812" y="582" fill="#374151" font-size="12" font-weight="600">9f8e7d6</text>
  <text x="900" y="582" fill="#6b7280" font-size="11">3주 전</text>
  <text x="800" y="602" fill="#111827" font-size="11">초기 작성 (수동 commit)</text>

  <!-- Version actions -->
  <rect x="784" y="640" width="130" height="32" rx="4" fill="#fff" stroke="#d1d5db"/>
  <text x="849" y="660" fill="#374151" font-size="12" font-weight="600" text-anchor="middle">선택 버전 보기</text>
  <rect x="924" y="640" width="134" height="32" rx="4" fill="#fff" stroke="#dc2626"/>
  <text x="991" y="660" fill="#dc2626" font-size="12" font-weight="600" text-anchor="middle">이 버전으로 복원</text>

  <text x="784" y="694" fill="#9ca3af" font-size="10">복원 시 새 커밋이 생성되며 이력은 보존됩니다.</text>

  <!-- Bottom info bar -->
  <rect x="24" y="740" width="1052" height="56" rx="8" fill="#fffbeb" stroke="#f59e0b"/>
  <text x="44" y="762" fill="#92400e" font-size="13" font-weight="700">⚠ 이 프로파일에 적용되지 않은 변경이 있습니다</text>
  <text x="44" y="782" fill="#92400e" font-size="11">변경 대기: config.json (model: kistillm → kistillm-v2) — 적용하려면 에이전트 재시작 필요</text>
  <rect x="900" y="754" width="160" height="30" rx="5" fill="#f59e0b"/>
  <text x="980" y="773" fill="#fff" font-size="13" font-weight="700" text-anchor="middle">지금 재시작</text>
</svg>
