<svg xmlns="http://www.w3.org/2000/svg" viewBox="0 0 1100 780" font-family="-apple-system,Segoe UI,sans-serif">
  <rect width="1100" height="780" fill="#f9fafb"/>

  <!-- Top nav -->
  <rect x="0" y="0" width="1100" height="56" fill="#1e3a8a"/>
  <text x="24" y="35" fill="#fff" font-size="16" font-weight="700">DataON 관리 콘솔</text>
  <text x="220" y="35" fill="#cbd5e1" font-size="14">대시보드</text>
  <text x="310" y="35" fill="#ffffff" font-size="14" font-weight="600">기관 연계</text>
  <text x="400" y="35" fill="#cbd5e1" font-size="14">등록 모니터링</text>
  <text x="520" y="35" fill="#cbd5e1" font-size="14">에이전트 관리</text>
  <text x="650" y="35" fill="#cbd5e1" font-size="14">로그</text>
  <text x="1020" y="35" fill="#cbd5e1" font-size="13">담당자 ▾</text>

  <!-- Page header -->
  <text x="24" y="86" fill="#6b7280" font-size="12">기관 연계 / 신규 기관 온보딩 / KIGAM (한국지질자원연구원)</text>
  <text x="24" y="118" fill="#111827" font-size="22" font-weight="700">신규 기관 컬렉션 설정</text>
  <text x="24" y="140" fill="#6b7280" font-size="13">AI 에이전트와 대화로 컬렉션 정의 · 메타데이터 매핑 · OpenAPI 키 발급까지 완료</text>

  <!-- Stepper -->
  <rect x="24" y="160" width="1052" height="56" rx="8" fill="#fff" stroke="#e5e7eb"/>
  <!-- Step 1 (done) -->
  <circle cx="80" cy="188" r="14" fill="#10b981"/>
  <text x="80" y="193" fill="#fff" font-size="13" font-weight="700" text-anchor="middle">✓</text>
  <text x="80" y="212" fill="#065f46" font-size="11" font-weight="600" text-anchor="middle">요건 수집</text>
  <line x1="100" y1="188" x2="240" y2="188" stroke="#10b981" stroke-width="2"/>

  <!-- Step 2 (done) -->
  <circle cx="260" cy="188" r="14" fill="#10b981"/>
  <text x="260" y="193" fill="#fff" font-size="13" font-weight="700" text-anchor="middle">✓</text>
  <text x="260" y="212" fill="#065f46" font-size="11" font-weight="600" text-anchor="middle">컬렉션 정의</text>
  <line x1="280" y1="188" x2="420" y2="188" stroke="#10b981" stroke-width="2"/>

  <!-- Step 3 (active) -->
  <circle cx="440" cy="188" r="14" fill="#2563eb"/>
  <text x="440" y="193" fill="#fff" font-size="13" font-weight="700" text-anchor="middle">3</text>
  <text x="440" y="212" fill="#1e3a8a" font-size="11" font-weight="700" text-anchor="middle">메타데이터 매핑</text>
  <line x1="460" y1="188" x2="600" y2="188" stroke="#d1d5db" stroke-width="2"/>

  <!-- Step 4 -->
  <circle cx="620" cy="188" r="14" fill="#fff" stroke="#d1d5db" stroke-width="2"/>
  <text x="620" y="193" fill="#9ca3af" font-size="13" text-anchor="middle">4</text>
  <text x="620" y="212" fill="#6b7280" font-size="11" text-anchor="middle">OpenAPI 키</text>
  <line x1="640" y1="188" x2="780" y2="188" stroke="#d1d5db" stroke-width="2"/>

  <!-- Step 5 -->
  <circle cx="800" cy="188" r="14" fill="#fff" stroke="#d1d5db" stroke-width="2"/>
  <text x="800" y="193" fill="#9ca3af" font-size="13" text-anchor="middle">5</text>
  <text x="800" y="212" fill="#6b7280" font-size="11" text-anchor="middle">연계 테스트</text>
  <line x1="820" y1="188" x2="960" y2="188" stroke="#d1d5db" stroke-width="2"/>

  <!-- Step 6 -->
  <circle cx="980" cy="188" r="14" fill="#fff" stroke="#d1d5db" stroke-width="2"/>
  <text x="980" y="193" fill="#9ca3af" font-size="13" text-anchor="middle">6</text>
  <text x="980" y="212" fill="#6b7280" font-size="11" text-anchor="middle">운영 전환</text>

  <!-- LEFT: Chat panel -->
  <rect x="24" y="234" width="510" height="492" rx="8" fill="#fff" stroke="#e5e7eb"/>
  <rect x="24" y="234" width="510" height="40" rx="8" fill="#f9fafb" stroke="#e5e7eb"/>
  <text x="44" y="259" fill="#111827" font-size="13" font-weight="700">🤖 기관 연계 에이전트</text>
  <circle cx="500" cy="254" r="5" fill="#10b981"/>
  <text x="512" y="258" fill="#10b981" font-size="11" font-weight="600">활성</text>

  <!-- Chat messages -->
  <!-- msg 1: user -->
  <rect x="180" y="288" width="334" height="60" rx="8" fill="#eff6ff"/>
  <text x="200" y="308" fill="#1e3a8a" font-size="12" font-weight="600">👤 담당자 — 09:14</text>
  <text x="200" y="326" fill="#1e3a8a" font-size="12">"우리 기관(KIGAM) 컬렉션을 새로 만들고</text>
  <text x="200" y="342" fill="#1e3a8a" font-size="12">  지질·자원 분야 메타데이터를 정의해줘"</text>

  <!-- msg 2: agent -->
  <rect x="44" y="358" width="380" height="74" rx="8" fill="#f3f4f6"/>
  <text x="64" y="378" fill="#111827" font-size="12" font-weight="600">🤖 에이전트 — 09:14</text>
  <text x="64" y="396" fill="#111827" font-size="12">"기관 정보를 확인했습니다.</text>
  <text x="64" y="412" fill="#111827" font-size="12">DataON 표준 메타데이터에 KIGAM 특화 필드를</text>
  <text x="64" y="428" fill="#111827" font-size="12">추가하겠습니다. 다음 파일을 첨부해 주세요:"</text>

  <!-- file request -->
  <rect x="60" y="442" width="346" height="40" rx="6" fill="#fff" stroke="#0284c7" stroke-dasharray="3 3"/>
  <text x="76" y="466" fill="#0284c7" font-size="12">📎 기존 NaRDA 컬렉션 정의 (.xlsx 또는 URL)</text>

  <!-- msg 3: user (with attachment) -->
  <rect x="180" y="494" width="334" height="56" rx="8" fill="#eff6ff"/>
  <text x="200" y="514" fill="#1e3a8a" font-size="12" font-weight="600">👤 담당자 — 09:18</text>
  <rect x="200" y="522" width="282" height="20" rx="4" fill="#dbeafe"/>
  <text x="212" y="537" fill="#1e3a8a" font-size="11" font-weight="600">📄 kigam_collection_v2.xlsx (24KB)</text>

  <!-- msg 4: agent (working) -->
  <rect x="44" y="560" width="466" height="118" rx="8" fill="#f3f4f6"/>
  <text x="64" y="580" fill="#111827" font-size="12" font-weight="600">🤖 에이전트 — 09:18</text>
  <text x="64" y="598" fill="#111827" font-size="12">"엑셀 분석 완료. 다음 작업을 수행했습니다:"</text>
  <text x="64" y="618" fill="#10b981" font-size="11">  ✓ 메타데이터 24개 필드 추출 · DataON 표준 매핑</text>
  <text x="64" y="634" fill="#10b981" font-size="11">  ✓ 좌표계(EPSG:5179) 변환 규칙 자동 생성</text>
  <text x="64" y="650" fill="#10b981" font-size="11">  ✓ 필수/옵션 자동 판별 · DOI 발급 대상 식별</text>
  <text x="64" y="666" fill="#f59e0b" font-size="11">  ⚠ 2개 필드는 매핑 모호함 → 우측 패널에서 확인 부탁드립니다</text>

  <!-- Input area -->
  <rect x="44" y="690" width="380" height="32" rx="6" fill="#fff" stroke="#d1d5db"/>
  <text x="56" y="710" fill="#9ca3af" font-size="12">메시지 입력...</text>
  <rect x="432" y="690" width="42" height="32" rx="6" fill="#fff" stroke="#d1d5db"/>
  <text x="453" y="710" fill="#374151" font-size="14" text-anchor="middle">📎</text>
  <rect x="478" y="690" width="42" height="32" rx="6" fill="#2563eb"/>
  <text x="499" y="710" fill="#fff" font-size="14" font-weight="700" text-anchor="middle">↵</text>

  <!-- RIGHT: Generated artifacts -->
  <rect x="546" y="234" width="530" height="492" rx="8" fill="#fff" stroke="#e5e7eb"/>
  <rect x="546" y="234" width="530" height="40" rx="8" fill="#f9fafb" stroke="#e5e7eb"/>
  <text x="566" y="259" fill="#111827" font-size="13" font-weight="700">자동 생성된 컬렉션 정의</text>
  <text x="900" y="259" fill="#6b7280" font-size="11">신뢰도 92%</text>

  <!-- Collection summary -->
  <rect x="566" y="288" width="490" height="78" rx="6" fill="#ecfdf5" stroke="#10b981"/>
  <text x="582" y="308" fill="#065f46" font-size="12" font-weight="700">컬렉션: KIGAM 지질자원 데이터</text>
  <text x="582" y="326" fill="#065f46" font-size="11">코드: kigam-geo-2026 · 담당자: 김지질 (kim.geo@kigam.re.kr)</text>
  <text x="582" y="344" fill="#065f46" font-size="11">표준 메타데이터: 24개 필드 · 기관 특화: 6개 · DOI 발급: 자동</text>
  <text x="582" y="360" fill="#065f46" font-size="11">예상 연간 등록: 1,200건 · 평균 파일 크기: 250 MB</text>

  <!-- Field mapping table -->
  <text x="566" y="396" fill="#111827" font-size="12" font-weight="700">메타데이터 매핑 (24필드)</text>
  <text x="900" y="396" fill="#2563eb" font-size="11" font-weight="600">전체 보기 ▸</text>

  <rect x="566" y="408" width="490" height="200" rx="6" fill="#fff" stroke="#e5e7eb"/>

  <text x="582" y="430" fill="#6b7280" font-size="10" font-weight="700">KIGAM 필드</text>
  <text x="730" y="430" fill="#6b7280" font-size="10" font-weight="700">→ DataON 표준</text>
  <text x="880" y="430" fill="#6b7280" font-size="10" font-weight="700">변환 / 신뢰도</text>
  <line x1="578" y1="438" x2="1042" y2="438" stroke="#e5e7eb"/>

  <text x="582" y="458" fill="#111827" font-size="11" font-weight="600">자원_명칭</text>
  <text x="730" y="458" fill="#111827" font-size="11">Title (한)</text>
  <rect x="880" y="446" width="60" height="20" rx="3" fill="#d1fae5"/>
  <text x="910" y="460" fill="#065f46" font-size="10" font-weight="600" text-anchor="middle">자동 99%</text>

  <text x="582" y="482" fill="#111827" font-size="11" font-weight="600">자원_설명</text>
  <text x="730" y="482" fill="#111827" font-size="11">Description</text>
  <rect x="880" y="470" width="60" height="20" rx="3" fill="#d1fae5"/>
  <text x="910" y="484" fill="#065f46" font-size="10" font-weight="600" text-anchor="middle">자동 96%</text>

  <text x="582" y="506" fill="#111827" font-size="11" font-weight="600">조사지점_좌표</text>
  <text x="730" y="506" fill="#111827" font-size="11">Location (위/경도)</text>
  <rect x="880" y="494" width="80" height="20" rx="3" fill="#dbeafe"/>
  <text x="920" y="508" fill="#1e3a8a" font-size="10" font-weight="600" text-anchor="middle">변환 규칙</text>

  <text x="582" y="530" fill="#111827" font-size="11" font-weight="600">시료_유형</text>
  <text x="730" y="530" fill="#111827" font-size="11">SampleType ⚠</text>
  <rect x="880" y="518" width="80" height="20" rx="3" fill="#fef3c7"/>
  <text x="920" y="532" fill="#92400e" font-size="10" font-weight="600" text-anchor="middle">확인 필요</text>

  <text x="582" y="554" fill="#111827" font-size="11" font-weight="600">데이터_유형</text>
  <text x="730" y="554" fill="#111827" font-size="11">Type</text>
  <rect x="880" y="542" width="60" height="20" rx="3" fill="#d1fae5"/>
  <text x="910" y="556" fill="#065f46" font-size="10" font-weight="600" text-anchor="middle">자동 98%</text>

  <text x="582" y="578" fill="#111827" font-size="11" font-weight="600">측정장비</text>
  <text x="730" y="578" fill="#111827" font-size="11">Instrument</text>
  <rect x="880" y="566" width="80" height="20" rx="3" fill="#fef3c7"/>
  <text x="920" y="580" fill="#92400e" font-size="10" font-weight="600" text-anchor="middle">확인 필요</text>

  <text x="582" y="602" fill="#6b7280" font-size="10">... 그 외 18개 필드</text>

  <!-- Actions -->
  <rect x="566" y="626" width="156" height="36" rx="6" fill="#fff" stroke="#d1d5db"/>
  <text x="644" y="649" fill="#374151" font-size="12" font-weight="600" text-anchor="middle">매핑 수동 편집</text>

  <rect x="732" y="626" width="156" height="36" rx="6" fill="#fff" stroke="#2563eb"/>
  <text x="810" y="649" fill="#2563eb" font-size="12" font-weight="600" text-anchor="middle">XML 스키마 미리보기</text>

  <rect x="898" y="626" width="156" height="36" rx="6" fill="#2563eb"/>
  <text x="976" y="649" fill="#fff" font-size="12" font-weight="700" text-anchor="middle">확인 후 다음 단계 →</text>

  <!-- Test result preview -->
  <rect x="566" y="676" width="490" height="44" rx="6" fill="#eff6ff" stroke="#0284c7"/>
  <text x="582" y="696" fill="#0c4a6e" font-size="11" font-weight="700">🧪 사전 검증 통과 — 샘플 3건 자동 등록·삭제 테스트 완료 (1.2초)</text>
  <text x="582" y="712" fill="#0c4a6e" font-size="10">git commit: admin: institution kigam mapping draft (a3f1e29)</text>

  <!-- Footer -->
  <text x="24" y="752" fill="#9ca3af" font-size="11">기관 연계 에이전트 · 모델 kistillm · MCP: kisti-aida, dataon-admin · 세션 ID: link-kigam-20260514-091421</text>
</svg>
